<svg xmlns="http://www.w3.org/2000/svg" version="1.1" xmlns:xlink="http://www.w3.org/1999/xlink" width="1000" height="1000"><style>
    #light-icon {
      display: inline;
    }
    #dark-icon {
      display: none;
    }

    @media (prefers-color-scheme: dark) {
      #light-icon {
        display: none;
      }
      #dark-icon {
        display: inline;
      }
    }
  </style><g id="light-icon"><svg xmlns="http://www.w3.org/2000/svg" version="1.1" xmlns:xlink="http://www.w3.org/1999/xlink" width="1000" height="1000"><g clip-path="url(#SvgjsClipPath1240)"><rect width="1000" height="1000" fill="#ffffff"></rect><g transform="matrix(1.5625,0,0,1.5625,0,100)"><svg xmlns="http://www.w3.org/2000/svg" version="1.1" xmlns:xlink="http://www.w3.org/1999/xlink" width="640" height="512"><svg xmlns="http://www.w3.org/2000/svg" viewBox="0 0 640 512"><!--!Font Awesome Free 6.7.2 by @fontawesome - https://fontawesome.com License - https://fontawesome.com/license/free Copyright 2025 Fonticons, Inc.--><path d="M381 114.9L186.1 41.8c-16.7-6.2-35.2-5.3-51.1 2.7L89.1 67.4C78 73 77.2 88.5 87.6 95.2l146.9 94.5L136 240 77.8 214.1c-8.7-3.9-18.8-3.7-27.3 .6L18.3 230.8c-9.3 4.7-11.8 16.8-5 24.7l73.1 85.3c-6.1 7.1 15 11.2 24.3 11.2l137.7 0c5 0 9.9-1.2 14.3-3.4L535.6 212.2c46.5-23.3 82.5-63.3 100.8-112C645.9 75 627.2 48 600.2 48l-57.4 0c-20.2 0-40.2 4.8-58.2 14L381 114.9zM0 480c0 17.7 14.3 32 32 32l576 0c17.7 0 32-14.3 32-32s-14.3-32-32-32L32 448c-17.7 0-32 14.3-32 32z"></path></svg></svg></g></g><defs><clipPath id="SvgjsClipPath1240"><rect width="1000" height="1000" x="0" y="0" rx="500" ry="500"></rect></clipPath></defs></svg></g><g id="dark-icon"><svg xmlns="http://www.w3.org/2000/svg" version="1.1" xmlns:xlink="http://www.w3.org/1999/xlink" width="1000" height="1000"><g clip-path="url(#SvgjsClipPath1241)"><rect width="1000" height="1000" fill="#ffffff"></rect><g transform="matrix(0.9375,0,0,0.9375,200,260)"><svg xmlns="http://www.w3.org/2000/svg" version="1.1" xmlns:xlink="http://www.w3.org/1999/xlink" width="640" height="512"><svg xmlns="http://www.w3.org/2000/svg" viewBox="0 0 640 512"><!--!Font Awesome Free 6.7.2 by @fontawesome - https://fontawesome.com License - https://fontawesome.com/license/free Copyright 2025 Fonticons, Inc.--><path d="M381 114.9L186.1 41.8c-16.7-6.2-35.2-5.3-51.1 2.7L89.1 67.4C78 73 77.2 88.5 87.6 95.2l146.9 94.5L136 240 77.8 214.1c-8.7-3.9-18.8-3.7-27.3 .6L18.3 230.8c-9.3 4.7-11.8 16.8-5 24.7l73.1 85.3c-6.1 7.1 15 11.2 24.3 11.2l137.7 0c5 0 9.9-1.2 14.3-3.4L535.6 212.2c46.5-23.3 82.5-63.3 100.8-112C645.9 75 627.2 48 600.2 48l-57.4 0c-20.2 0-40.2 4.8-58.2 14L381 114.9zM0 480c0 17.7 14.3 32 32 32l576 0c17.7 0 32-14.3 32-32s-14.3-32-32-32L32 448c-17.7 0-32 14.3-32 32z"></path></svg></svg></g></g><defs><clipPath id="SvgjsClipPath1241"><rect width="1000" height="1000" x="0" y="0" rx="500" ry="500"></rect></clipPath></defs></svg></g></svg>